<svg width="172" height="209" viewBox="0 0 172 209" fill="none" xmlns="http://www.w3.org/2000/svg">
<path d="M57.9045 166.943C55.6464 166.846 53.7257 168.268 53.6073 170.121L52.3726 189.475C50.7784 189.199 49.1761 188.932 47.5992 188.768C46.6918 188.673 45.8178 188.625 44.9748 188.62C32.3322 188.533 27.2408 199.196 37.3202 209.002L76.6365 207.942C78.8946 208.039 80.8153 206.617 80.9336 204.764L83.0689 171.388C83.1873 169.535 81.4417 167.948 79.1836 167.851L57.9045 166.943Z" fill="#414141"/>
<mask id="mask0_859_2731" style="mask-type:luminance" maskUnits="userSpaceOnUse" x="31" y="166" width="53" height="44">
<path d="M83.0742 166.939H31.9756V209.003H83.0742V166.939Z" fill="black"/>
<path d="M57.9045 166.943C55.6464 166.846 53.7257 168.268 53.6073 170.121L52.3726 189.475C50.7784 189.199 49.1761 188.932 47.5992 188.768C46.6918 188.673 45.8178 188.625 44.9748 188.62C32.3322 188.533 27.2408 199.196 37.3202 209.002L76.6365 207.942C78.8946 208.039 80.8153 206.617 80.9336 204.764L83.0689 171.388C83.1873 169.535 81.4417 167.948 79.1836 167.851L57.9045 166.943Z" fill="white"/>
</mask>
<g mask="url(#mask0_859_2731)">
<path d="M57.9045 166.943C55.6464 166.846 53.7257 168.268 53.6073 170.121L52.3726 189.475C50.7784 189.199 49.1761 188.932 47.5992 188.768C46.6918 188.673 45.8178 188.625 44.9748 188.62C32.3322 188.533 27.2408 199.196 37.3202 209.002L76.6365 207.942C78.8946 208.039 80.8153 206.617 80.9336 204.764L83.0689 171.388C83.1873 169.535 81.4417 167.948 79.1836 167.851L57.9045 166.943Z" stroke="black" stroke-width="5.2178" stroke-miterlimit="10" stroke-linejoin="round"/>
</g>
<path d="M40.7337 197.86C40.7337 197.86 38.5955 201.327 41.2739 204.333C43.9519 207.34 47.3891 207.567 47.3891 207.567" stroke="black" stroke-width="2.60891" stroke-miterlimit="10" stroke-linecap="round" stroke-linejoin="round"/>
<path d="M113.408 166.943C115.666 166.846 117.587 168.268 117.705 170.121L118.94 189.475C120.534 189.199 122.137 188.932 123.713 188.768C124.621 188.673 125.495 188.625 126.338 188.62C138.98 188.533 144.072 199.196 133.992 209.002L94.6759 207.942C92.4182 208.039 90.4971 206.617 90.3792 204.764L88.2435 171.388C88.1251 169.535 89.8707 167.948 92.1288 167.851L113.408 166.943Z" fill="#414141"/>
<mask id="mask1_859_2731" style="mask-type:luminance" maskUnits="userSpaceOnUse" x="88" y="166" width="52" height="44">
<path d="M139.336 166.939H88.2378V209.003H139.336V166.939Z" fill="black"/>
<path d="M113.408 166.943C115.666 166.846 117.587 168.268 117.705 170.121L118.94 189.475C120.534 189.199 122.137 188.932 123.713 188.768C124.621 188.673 125.495 188.625 126.338 188.62C138.98 188.533 144.072 199.196 133.992 209.002L94.6759 207.942C92.4182 208.039 90.4971 206.617 90.3792 204.764L88.2435 171.388C88.1251 169.535 89.8707 167.948 92.1288 167.851L113.408 166.943Z" fill="white"/>
</mask>
<g mask="url(#mask1_859_2731)">
<path d="M113.408 166.943C115.666 166.846 117.587 168.268 117.705 170.121L118.94 189.475C120.534 189.199 122.137 188.932 123.713 188.768C124.621 188.673 125.495 188.625 126.338 188.62C138.98 188.533 144.072 199.196 133.992 209.002L94.6759 207.942C92.4182 208.039 90.4971 206.617 90.3792 204.764L88.2435 171.388C88.1251 169.535 89.8707 167.948 92.1288 167.851L113.408 166.943Z" stroke="black" stroke-width="5.2178" stroke-miterlimit="10" stroke-linejoin="round"/>
</g>
<path d="M130.579 197.86C130.579 197.86 132.717 201.327 130.039 204.333C127.361 207.34 123.923 207.567 123.923 207.567" stroke="black" stroke-width="2.60891" stroke-miterlimit="10" stroke-linecap="round" stroke-linejoin="round"/>
<path d="M43.8104 124.008C45.0418 121.235 48.8265 112.141 57.013 107.051C62.6136 103.569 73.2788 105.319 73.2788 105.319L66.5452 150.641L38.2334 150.523C38.2334 150.523 38.9987 134.844 43.8104 124.008Z" fill="#FFCA26"/>
<mask id="mask2_859_2731" style="mask-type:luminance" maskUnits="userSpaceOnUse" x="35" y="102" width="41" height="52">
<path d="M75.8877 102.271H35.6245V153.25H75.8877V102.271Z" fill="white"/>
<path d="M43.8104 124.008C45.0418 121.235 48.8265 112.141 57.013 107.051C62.6136 103.569 73.2788 105.319 73.2788 105.319L66.5452 150.641L38.2334 150.523C38.2334 150.523 38.9987 134.844 43.8104 124.008Z" fill="black"/>
</mask>
<g mask="url(#mask2_859_2731)">
<path d="M43.8104 124.008C45.0418 121.235 48.8265 112.141 57.013 107.051C62.6136 103.569 73.2788 105.319 73.2788 105.319L66.5452 150.641L38.2334 150.523C38.2334 150.523 38.9987 134.844 43.8104 124.008Z" stroke="black" stroke-width="5.2178" stroke-miterlimit="10" stroke-linejoin="round"/>
</g>
<path d="M127.132 124.008C125.901 121.235 122.116 112.141 113.93 107.051C108.329 103.569 97.6641 105.319 97.6641 105.319L104.398 150.641L132.709 150.523C132.709 150.523 131.944 134.844 127.132 124.008Z" fill="#FFCA26"/>
<mask id="mask3_859_2731" style="mask-type:luminance" maskUnits="userSpaceOnUse" x="95" y="102" width="41" height="52">
<path d="M135.318 102.271H95.0547V153.25H135.318V102.271Z" fill="white"/>
<path d="M127.132 124.008C125.901 121.235 122.116 112.141 113.93 107.051C108.329 103.569 97.6641 105.319 97.6641 105.319L104.398 150.641L132.709 150.523C132.709 150.523 131.944 134.844 127.132 124.008Z" fill="black"/>
</mask>
<g mask="url(#mask3_859_2731)">
<path d="M127.132 124.008C125.901 121.235 122.116 112.141 113.93 107.051C108.329 103.569 97.6641 105.319 97.6641 105.319L104.398 150.641L132.709 150.523C132.709 150.523 131.944 134.844 127.132 124.008Z" stroke="black" stroke-width="5.2178" stroke-miterlimit="10" stroke-linejoin="round"/>
</g>
<path d="M145.85 155.86C145.85 150.112 141.337 144.442 133.962 141.2L117.305 141.611C117.305 141.611 103.073 149.066 103.073 154.867C103.073 162.417 112.953 167.378 125.14 167.378C137.327 167.378 145.85 163.41 145.85 155.86Z" fill="#414141"/>
<mask id="mask4_859_2731" style="mask-type:luminance" maskUnits="userSpaceOnUse" x="103" y="141" width="43" height="27">
<path d="M145.85 141.2H103.073V167.379H145.85V141.2Z" fill="black"/>
<path d="M145.85 155.86C145.85 150.112 141.337 144.442 133.962 141.2L117.305 141.611C117.305 141.611 103.073 149.066 103.073 154.867C103.073 162.417 112.953 167.378 125.14 167.378C137.327 167.378 145.85 163.41 145.85 155.86Z" fill="white"/>
</mask>
<g mask="url(#mask4_859_2731)">
<path d="M145.85 155.86C145.85 150.112 141.337 144.442 133.962 141.2L117.305 141.611C117.305 141.611 103.073 149.066 103.073 154.867C103.073 162.417 112.953 167.378 125.14 167.378C137.327 167.378 145.85 163.41 145.85 155.86Z" stroke="black" stroke-width="5.2178" stroke-miterlimit="10" stroke-linejoin="round"/>
</g>
<mask id="mask5_859_2731" style="mask-type:luminance" maskUnits="userSpaceOnUse" x="103" y="141" width="43" height="27">
<path d="M145.85 155.86C145.85 150.112 141.337 144.442 133.962 141.2L117.305 141.611C117.305 141.611 103.073 149.066 103.073 154.867C103.073 162.417 112.953 167.378 125.14 167.378C137.327 167.378 145.85 163.41 145.85 155.86Z" fill="white"/>
</mask>
<g mask="url(#mask5_859_2731)">
<path d="M134.999 155.957C134.999 155.957 137.221 160.436 134.565 163.25C131.909 166.064 124.375 167.213 124.375 167.213" fill="#414141"/>
<path d="M134.999 155.957C134.999 155.957 137.221 160.436 134.565 163.25C131.909 166.064 124.375 167.213 124.375 167.213" stroke="black" stroke-width="2.60891" stroke-miterlimit="10" stroke-linecap="round" stroke-linejoin="round"/>
</g>
<path d="M25.4624 155.86C25.4624 150.112 29.9749 144.442 37.3506 141.2L54.0073 141.611C54.0073 141.611 68.239 149.066 68.239 154.867C68.239 162.417 58.3596 167.378 46.1727 167.378C33.9858 167.378 25.4624 163.41 25.4624 155.86Z" fill="#414141"/>
<mask id="mask6_859_2731" style="mask-type:luminance" maskUnits="userSpaceOnUse" x="25" y="141" width="44" height="27">
<path d="M68.239 141.2H25.4624V167.379H68.239V141.2Z" fill="black"/>
<path d="M25.4624 155.86C25.4624 150.112 29.9749 144.442 37.3506 141.2L54.0073 141.611C54.0073 141.611 68.239 149.066 68.239 154.867C68.239 162.417 58.3596 167.378 46.1727 167.378C33.9858 167.378 25.4624 163.41 25.4624 155.86Z" fill="white"/>
</mask>
<g mask="url(#mask6_859_2731)">
<path d="M25.4624 155.86C25.4624 150.112 29.9749 144.442 37.3506 141.2L54.0073 141.611C54.0073 141.611 68.239 149.066 68.239 154.867C68.239 162.417 58.3596 167.378 46.1727 167.378C33.9858 167.378 25.4624 163.41 25.4624 155.86Z" stroke="black" stroke-width="5.2178" stroke-miterlimit="10" stroke-linejoin="round"/>
</g>
<mask id="mask7_859_2731" style="mask-type:luminance" maskUnits="userSpaceOnUse" x="25" y="141" width="44" height="27">
<path d="M25.4624 155.86C25.4624 150.112 29.9749 144.442 37.3506 141.2L54.0073 141.611C54.0073 141.611 68.239 149.066 68.239 154.867C68.239 162.417 58.3596 167.378 46.1727 167.378C33.9858 167.378 25.4624 163.41 25.4624 155.86Z" fill="white"/>
</mask>
<g mask="url(#mask7_859_2731)">
<path d="M36.3128 155.957C36.3128 155.957 34.091 160.436 36.7468 163.25C39.403 166.064 46.9373 167.213 46.9373 167.213" fill="#414141"/>
<path d="M36.3128 155.957C36.3128 155.957 34.091 160.436 36.7468 163.25C39.403 166.064 46.9373 167.213 46.9373 167.213" stroke="black" stroke-width="2.60891" stroke-miterlimit="10" stroke-linecap="round" stroke-linejoin="round"/>
</g>
<path d="M61.2994 154.318C58.8815 154.068 56.5397 155.46 56.0674 157.422L51.3226 177.145C50.8508 179.107 52.441 180.711 54.8782 180.726L80.4082 180.883C82.8454 180.898 85.0733 179.305 85.3789 177.321L86.1281 167.589L86.8773 177.321C87.1829 179.305 89.4107 180.898 91.8476 180.883L117.378 180.726C119.815 180.711 121.405 179.107 120.933 177.145L116.189 157.422C115.717 155.46 113.375 154.068 110.957 154.318L88.1494 156.69C87.3765 156.77 86.7138 157.048 86.1281 157.402C85.5423 157.048 84.8793 156.77 84.1067 156.69L61.2994 154.318Z" fill="#070707" stroke="black" stroke-width="2.41135" stroke-miterlimit="10" stroke-linejoin="round"/>
<path d="M68.1304 105.164H104.121C108.428 105.164 112.615 109.129 113.474 114.02L122.835 167.336C123.694 172.227 120.899 176.193 116.592 176.193H55.6634C51.357 176.193 48.5614 172.227 49.4201 167.336L58.7781 114.02C59.6364 109.129 63.8236 105.164 68.1304 105.164Z" fill="#FFCA26"/>
<mask id="mask8_859_2731" style="mask-type:luminance" maskUnits="userSpaceOnUse" x="49" y="105" width="74" height="72">
<path d="M122.99 105.164H49.2651V176.193H122.99V105.164Z" fill="black"/>
<path d="M68.1304 105.164H104.121C108.428 105.164 112.615 109.129 113.474 114.02L122.835 167.336C123.694 172.227 120.899 176.193 116.592 176.193H55.6634C51.357 176.193 48.5614 172.227 49.4201 167.336L58.7781 114.02C59.6364 109.129 63.8236 105.164 68.1304 105.164Z" fill="white"/>
</mask>
<g mask="url(#mask8_859_2731)">
<path d="M68.1304 105.164H104.121C108.428 105.164 112.615 109.129 113.474 114.02L122.835 167.336C123.694 172.227 120.899 176.193 116.592 176.193H55.6634C51.357 176.193 48.5614 172.227 49.4201 167.336L58.7781 114.02C59.6364 109.129 63.8236 105.164 68.1304 105.164Z" stroke="black" stroke-width="5.2178" stroke-miterlimit="10" stroke-linejoin="round"/>
</g>
<path d="M70.252 86.4917C70.252 84.8838 71.2475 83.5802 72.4754 83.5802H98.6451C99.873 83.5802 100.869 84.8838 100.869 86.4917V108.868C100.869 110.476 99.873 111.779 98.6451 111.779H72.4754C71.2475 111.779 70.252 110.476 70.252 108.868V86.4917Z" fill="#414141"/>
<path d="M62.7725 98.0257L85.9233 106.897L108.17 98.0257C112.045 96.5225 115.187 98.1554 115.187 101.673V106.492C115.187 110.01 111.712 112.861 107.426 112.861H63.5169C59.231 112.861 55.7563 110.01 55.7563 106.492V101.673C55.7563 98.1554 58.8977 96.5225 62.7725 98.0257Z" fill="#FFCA26"/>
<mask id="mask9_859_2731" style="mask-type:luminance" maskUnits="userSpaceOnUse" x="55" y="97" width="61" height="16">
<path d="M115.186 97.4664H55.7563V112.861H115.186V97.4664Z" fill="black"/>
<path d="M62.7725 98.0257L85.9233 106.897L108.17 98.0257C112.045 96.5225 115.187 98.1554 115.187 101.673V106.492C115.187 110.01 111.712 112.861 107.426 112.861H63.5169C59.231 112.861 55.7563 110.01 55.7563 106.492V101.673C55.7563 98.1554 58.8977 96.5225 62.7725 98.0257Z" fill="white"/>
</mask>
<g mask="url(#mask9_859_2731)">
<path d="M62.7725 98.0257L85.9233 106.897L108.17 98.0257C112.045 96.5225 115.187 98.1554 115.187 101.673V106.492C115.187 110.01 111.712 112.861 107.426 112.861H63.5169C59.231 112.861 55.7563 110.01 55.7563 106.492V101.673C55.7563 98.1554 58.8977 96.5225 62.7725 98.0257Z" stroke="black" stroke-width="5.2178" stroke-miterlimit="10" stroke-linejoin="round"/>
</g>
<path d="M149.766 88.0603C161.789 121.094 170 143.653 170 143.653C170 143.653 135.049 136.458 123.026 103.424C111.003 70.3914 126.57 24.3306 126.57 24.3306C126.57 24.3306 137.743 55.0274 149.766 88.0603Z" fill="#414141" stroke="black" stroke-width="2.78531" stroke-miterlimit="10" stroke-linejoin="round"/>
<mask id="mask10_859_2731" style="mask-type:luminance" maskUnits="userSpaceOnUse" x="118" y="24" width="52" height="120">
<path d="M149.766 88.0603C161.789 121.094 170 143.653 170 143.653C170 143.653 135.049 136.458 123.026 103.424C111.003 70.3914 126.57 24.3306 126.57 24.3306C126.57 24.3306 137.743 55.0274 149.766 88.0603Z" fill="white"/>
</mask>
<g mask="url(#mask10_859_2731)">
<path d="M165.527 152.998C166.535 155.77 165.106 158.835 162.334 159.844L125.617 173.208C122.845 174.217 119.78 172.787 118.771 170.015L74.2351 47.6546C73.2263 44.8829 74.6558 41.8176 77.4276 40.8087L114.145 27.4447C116.917 26.4358 119.982 27.865 120.991 30.6372L165.527 152.998Z" fill="#FFAAAD"/>
<path d="M149.766 88.0604C161.789 121.094 170 143.653 170 143.653C170 143.653 135.049 136.458 123.026 103.424C111.003 70.3915 126.57 24.3307 126.57 24.3307C126.57 24.3307 137.743 55.0275 149.766 88.0604Z" stroke="black" stroke-width="2.78531" stroke-miterlimit="10" stroke-linejoin="round"/>
</g>
<path d="M22.4904 88.0603C10.4674 121.094 2.25635 143.653 2.25635 143.653C2.25635 143.653 37.2071 136.458 49.2306 103.424C61.2536 70.3914 45.6863 24.3306 45.6863 24.3306C45.6863 24.3306 34.5135 55.0274 22.4904 88.0603Z" fill="#414141" stroke="black" stroke-width="2.78531" stroke-miterlimit="10" stroke-linejoin="round"/>
<mask id="mask11_859_2731" style="mask-type:luminance" maskUnits="userSpaceOnUse" x="2" y="24" width="52" height="120">
<path d="M22.4904 88.0603C10.4674 121.094 2.25635 143.653 2.25635 143.653C2.25635 143.653 37.2071 136.458 49.2306 103.424C61.2536 70.3914 45.6863 24.3306 45.6863 24.3306C45.6863 24.3306 34.5135 55.0274 22.4904 88.0603Z" fill="white"/>
</mask>
<g mask="url(#mask11_859_2731)">
<path d="M6.7298 152.998C5.72094 155.77 7.15009 158.835 9.92226 159.844L46.6392 173.208C49.4113 174.216 52.4766 172.787 53.4854 170.015L98.0209 47.6546C99.0297 44.8828 97.6006 41.8175 94.8284 40.8087L58.1115 27.4446C55.3393 26.4358 52.2745 27.8649 51.2652 30.6371L6.7298 152.998Z" fill="#FFAAAD"/>
<path d="M22.4904 88.0603C10.4674 121.094 2.25635 143.653 2.25635 143.653C2.25635 143.653 37.2071 136.458 49.2306 103.424C61.2536 70.3914 45.6863 24.3306 45.6863 24.3306C45.6863 24.3306 34.5135 55.0274 22.4904 88.0603Z" stroke="black" stroke-width="2.78531" stroke-miterlimit="10" stroke-linejoin="round"/>
</g>
<path d="M85.6563 1.7334C59.0643 1.7334 37.4381 22.7215 36.3403 48.9987C31.3281 52.6344 27.9477 57.9569 27.1566 65.1269C24.8985 85.59 44.1189 100.403 65.1875 100.403C69.6107 100.403 73.4658 100.094 77.0387 99.6107C79.841 100.103 82.7126 100.403 85.6563 100.403C88.7489 100.403 91.7667 100.09 94.7019 99.5474C98.4012 100.078 102.427 100.403 107.056 100.403C128.124 100.403 147.358 85.59 145.1 65.1269C144.259 57.51 140.474 52.0092 134.935 48.3695C133.52 22.3882 112.035 1.733 85.6563 1.7334Z" fill="#414141" stroke="black" stroke-width="2.78531" stroke-miterlimit="10" stroke-linejoin="round"/>
<mask id="mask12_859_2731" style="mask-type:luminance" maskUnits="userSpaceOnUse" x="26" y="1" width="120" height="100">
<path d="M85.6563 1.7334C59.0643 1.7334 37.4381 22.7215 36.3403 48.9987C31.3281 52.6344 27.9477 57.9569 27.1566 65.1269C24.8985 85.59 44.1189 100.403 65.1875 100.403C69.6107 100.403 73.4658 100.094 77.0387 99.6107C79.841 100.103 82.7126 100.403 85.6563 100.403C88.7489 100.403 91.7667 100.09 94.7019 99.5474C98.4012 100.078 102.427 100.403 107.056 100.403C128.124 100.403 147.358 85.59 145.1 65.1269C144.259 57.51 140.474 52.0092 134.935 48.3695C133.52 22.3882 112.035 1.733 85.6563 1.7334Z" fill="white"/>
</mask>
<g mask="url(#mask12_859_2731)">
<path d="M99.457 78.8331C99.457 68.9212 110.504 60.8861 124.132 60.8861C137.76 60.8861 148.807 68.9212 148.807 78.8331C148.807 88.7447 137.76 96.7797 124.132 96.7797C110.504 96.7797 99.457 88.7447 99.457 78.8331Z" fill="#FFAAAD" fill-opacity="0.39836"/>
<path d="M22.5059 78.8332C22.5059 68.9213 33.5534 60.8862 47.1812 60.8862C60.8089 60.8862 71.8561 68.9213 71.8561 78.8332C71.8561 88.7447 60.8089 96.7798 47.1812 96.7798C33.5534 96.7798 22.5059 88.7447 22.5059 78.8332Z" fill="#FFAAAD" fill-opacity="0.39836"/>
</g>
<path d="M85.6563 1.7334C59.0643 1.7334 37.4381 22.7215 36.3403 48.9987C31.3281 52.6344 27.9477 57.9569 27.1566 65.1269C24.8985 85.59 44.1189 100.403 65.1875 100.403C69.6107 100.403 73.4658 100.094 77.0387 99.6107C79.841 100.103 82.7126 100.403 85.6563 100.403C88.7489 100.403 91.7667 100.09 94.7019 99.5474C98.4012 100.078 102.427 100.403 107.056 100.403C128.124 100.403 147.358 85.59 145.1 65.1269C144.259 57.51 140.474 52.0092 134.935 48.3695C133.52 22.3882 112.035 1.733 85.6563 1.7334Z" stroke="black" stroke-width="2.78531" stroke-miterlimit="10" stroke-linejoin="round"/>
<mask id="mask13_859_2731" style="mask-type:luminance" maskUnits="userSpaceOnUse" x="64" y="64" width="22" height="7">
<path d="M85.8866 64.4047H64.3481V70.241H85.8866V64.4047Z" fill="black"/>
<path d="M64.3481 70.2409L85.8866 64.4047L64.3481 70.2409Z" fill="white"/>
</mask>
<g mask="url(#mask13_859_2731)">
<path d="M64.3481 70.2409L85.8866 64.4047L64.3481 70.2409Z" stroke="black" stroke-width="5.57062" stroke-miterlimit="10" stroke-linejoin="round"/>
</g>
<path d="M82.9614 72.7579L81.1087 70.5437C79.6208 68.7647 80.3217 67.3231 82.6752 67.3231H88.6374C90.9909 67.3231 91.6922 68.7647 90.2038 70.5437L88.3512 72.7579C86.8628 74.5369 84.4498 74.5369 82.9614 72.7579Z" fill="black"/>
<path d="M70.937 71.9523C70.937 71.9523 72.0944 75.6158 75.8034 77.2672C75.8034 77.2672 81.1742 80.8361 88.0752 70.9652" stroke="black" stroke-width="2.78531" stroke-miterlimit="10" stroke-linecap="round" stroke-linejoin="round"/>
<path d="M100.376 71.9318C100.376 71.9318 99.2278 75.5981 95.5228 77.2591C95.5228 77.2591 90.1617 80.8421 83.2349 70.9885" stroke="black" stroke-width="2.78531" stroke-miterlimit="10" stroke-linecap="round" stroke-linejoin="round"/>
<path d="M59.4868 37.6766L64.1306 36.3448" stroke="black" stroke-width="2.78531" stroke-miterlimit="10" stroke-linecap="round" stroke-linejoin="round"/>
<path d="M107.182 37.6765L111.825 39.0078" stroke="black" stroke-width="2.78531" stroke-miterlimit="10" stroke-linecap="round" stroke-linejoin="round"/>
<path d="M52.29 60.7223C52.29 55.4654 56.5517 51.2037 61.8086 51.2037C67.0659 51.2037 71.3272 55.4654 71.3272 60.7223C71.3272 65.9792 67.0659 70.2409 61.8086 70.2409C56.5517 70.2409 52.29 65.9792 52.29 60.7223Z" fill="white"/>
<mask id="mask14_859_2731" style="mask-type:luminance" maskUnits="userSpaceOnUse" x="52" y="51" width="20" height="20">
<path d="M71.3273 51.2037H52.29V70.2409H71.3273V51.2037Z" fill="black"/>
<path d="M52.29 60.7223C52.29 55.4654 56.5517 51.2037 61.8086 51.2037C67.0659 51.2037 71.3272 55.4654 71.3272 60.7223C71.3272 65.9792 67.0659 70.2409 61.8086 70.2409C56.5517 70.2409 52.29 65.9792 52.29 60.7223Z" fill="white"/>
</mask>
<g mask="url(#mask14_859_2731)">
<path d="M52.29 60.7223C52.29 55.4654 56.5517 51.2037 61.8086 51.2037C67.0659 51.2037 71.3272 55.4654 71.3272 60.7223C71.3272 65.9792 67.0659 70.2409 61.8086 70.2409C56.5517 70.2409 52.29 65.9792 52.29 60.7223Z" stroke="black" stroke-width="5.57062" stroke-miterlimit="10" stroke-linejoin="round"/>
</g>
<mask id="mask15_859_2731" style="mask-type:luminance" maskUnits="userSpaceOnUse" x="52" y="51" width="20" height="20">
<path d="M52.29 60.7223C52.29 55.4654 56.5517 51.2037 61.8086 51.2037C67.0659 51.2037 71.3272 55.4654 71.3272 60.7223C71.3272 65.9792 67.0659 70.2409 61.8086 70.2409C56.5517 70.2409 52.29 65.9792 52.29 60.7223Z" fill="white"/>
</mask>
<g mask="url(#mask15_859_2731)">
<path d="M59.8364 68.0001C59.8364 66.6092 60.1722 65.4816 60.5864 65.4816H63.6702C64.0841 65.4816 64.4198 66.6092 64.4198 68.0001C64.4198 69.3914 64.0841 70.5191 63.6702 70.5191H60.5864C60.1722 70.5191 59.8364 69.3914 59.8364 68.0001Z" fill="white"/>
<mask id="mask16_859_2731" style="mask-type:luminance" maskUnits="userSpaceOnUse" x="55" y="60" width="14" height="16">
<path d="M68.9085 60.9932H55.3481V75.0074H68.9085V60.9932Z" fill="white"/>
<path d="M59.8364 68.0001C59.8364 66.6092 60.1722 65.4816 60.5864 65.4816H63.6702C64.0841 65.4816 64.4198 66.6092 64.4198 68.0001C64.4198 69.3914 64.0841 70.5191 63.6702 70.5191H60.5864C60.1722 70.5191 59.8364 69.3914 59.8364 68.0001Z" fill="black"/>
</mask>
<g mask="url(#mask16_859_2731)">
<path d="M59.8364 68.0001C59.8364 66.6092 60.1722 65.4816 60.5864 65.4816H63.6702C64.0841 65.4816 64.4198 66.6092 64.4198 68.0001C64.4198 69.3914 64.0841 70.5191 63.6702 70.5191H60.5864C60.1722 70.5191 59.8364 69.3914 59.8364 68.0001Z" stroke="black" stroke-width="8.97701" stroke-miterlimit="10" stroke-linejoin="round"/>
</g>
<path d="M55.2529 56.7303C55.2529 54.5882 56.2421 52.8519 57.4619 52.8519H66.5465C67.7663 52.8519 68.7555 54.5882 68.7555 56.7303C68.7555 58.8725 67.7663 60.6092 66.5465 60.6092H57.4619C56.2421 60.6092 55.2529 58.8725 55.2529 56.7303Z" fill="white"/>
<mask id="mask17_859_2731" style="mask-type:luminance" maskUnits="userSpaceOnUse" x="50" y="48" width="24" height="18">
<path d="M73.2442 48.3634H50.7646V65.0977H73.2442V48.3634Z" fill="white"/>
<path d="M55.2529 56.7303C55.2529 54.5882 56.2421 52.8519 57.4619 52.8519H66.5465C67.7663 52.8519 68.7555 54.5882 68.7555 56.7303C68.7555 58.8725 67.7663 60.6092 66.5465 60.6092H57.4619C56.2421 60.6092 55.2529 58.8725 55.2529 56.7303Z" fill="black"/>
</mask>
<g mask="url(#mask17_859_2731)">
<path d="M55.2529 56.7303C55.2529 54.5882 56.2421 52.8519 57.4619 52.8519H66.5465C67.7663 52.8519 68.7555 54.5882 68.7555 56.7303C68.7555 58.8725 67.7663 60.6092 66.5465 60.6092H57.4619C56.2421 60.6092 55.2529 58.8725 55.2529 56.7303Z" stroke="black" stroke-width="8.97701" stroke-miterlimit="10" stroke-linejoin="round"/>
</g>
<mask id="mask18_859_2731" style="mask-type:luminance" maskUnits="userSpaceOnUse" x="52" y="51" width="20" height="20">
<path d="M71.3273 51.2037H52.29V70.241H71.3273V51.2037Z" fill="black"/>
<path d="M52.29 60.7223C52.29 55.4655 56.5517 51.2037 61.8086 51.2037C67.0659 51.2037 71.3272 55.4655 71.3272 60.7223C71.3272 65.9792 67.0659 70.2409 61.8086 70.2409C56.5517 70.2409 52.29 65.9792 52.29 60.7223Z" fill="white"/>
</mask>
<g mask="url(#mask18_859_2731)">
<path d="M52.29 60.7223C52.29 55.4655 56.5517 51.2037 61.8086 51.2037C67.0659 51.2037 71.3272 55.4655 71.3272 60.7223C71.3272 65.9792 67.0659 70.2409 61.8086 70.2409C56.5517 70.2409 52.29 65.9792 52.29 60.7223Z" stroke="black" stroke-width="5.57062" stroke-miterlimit="10" stroke-linejoin="round"/>
</g>
</g>
<path d="M99.9854 60.7223C99.9854 55.4654 104.247 51.2037 109.504 51.2037C114.761 51.2037 119.023 55.4654 119.023 60.7223C119.023 65.9792 114.761 70.2409 109.504 70.2409C104.247 70.2409 99.9854 65.9792 99.9854 60.7223Z" fill="white"/>
<mask id="mask19_859_2731" style="mask-type:luminance" maskUnits="userSpaceOnUse" x="99" y="51" width="21" height="20">
<path d="M119.023 51.2037H99.9854V70.2409H119.023V51.2037Z" fill="black"/>
<path d="M99.9854 60.7223C99.9854 55.4654 104.247 51.2037 109.504 51.2037C114.761 51.2037 119.023 55.4654 119.023 60.7223C119.023 65.9792 114.761 70.2409 109.504 70.2409C104.247 70.2409 99.9854 65.9792 99.9854 60.7223Z" fill="white"/>
</mask>
<g mask="url(#mask19_859_2731)">
<path d="M99.9854 60.7223C99.9854 55.4654 104.247 51.2037 109.504 51.2037C114.761 51.2037 119.023 55.4654 119.023 60.7223C119.023 65.9792 114.761 70.2409 109.504 70.2409C104.247 70.2409 99.9854 65.9792 99.9854 60.7223Z" stroke="black" stroke-width="5.57062" stroke-miterlimit="10" stroke-linejoin="round"/>
</g>
<mask id="mask20_859_2731" style="mask-type:luminance" maskUnits="userSpaceOnUse" x="99" y="51" width="21" height="20">
<path d="M99.9854 60.7223C99.9854 55.4654 104.247 51.2037 109.504 51.2037C114.761 51.2037 119.023 55.4654 119.023 60.7223C119.023 65.9792 114.761 70.2409 109.504 70.2409C104.247 70.2409 99.9854 65.9792 99.9854 60.7223Z" fill="white"/>
</mask>
<g mask="url(#mask20_859_2731)">
<path d="M107.532 68.0001C107.532 66.6092 107.867 65.4816 108.281 65.4816H111.365C111.779 65.4816 112.115 66.6092 112.115 68.0001C112.115 69.3914 111.779 70.5191 111.365 70.5191H108.281C107.867 70.5191 107.532 69.3914 107.532 68.0001Z" fill="white"/>
<mask id="mask21_859_2731" style="mask-type:luminance" maskUnits="userSpaceOnUse" x="103" y="60" width="14" height="16">
<path d="M116.603 60.9932H103.043V75.0074H116.603V60.9932Z" fill="white"/>
<path d="M107.532 68.0001C107.532 66.6092 107.867 65.4816 108.281 65.4816H111.365C111.779 65.4816 112.115 66.6092 112.115 68.0001C112.115 69.3914 111.779 70.5191 111.365 70.5191H108.281C107.867 70.5191 107.532 69.3914 107.532 68.0001Z" fill="black"/>
</mask>
<g mask="url(#mask21_859_2731)">
<path d="M107.532 68.0001C107.532 66.6092 107.867 65.4816 108.281 65.4816H111.365C111.779 65.4816 112.115 66.6092 112.115 68.0001C112.115 69.3914 111.779 70.5191 111.365 70.5191H108.281C107.867 70.5191 107.532 69.3914 107.532 68.0001Z" stroke="black" stroke-width="8.97701" stroke-miterlimit="10" stroke-linejoin="round"/>
</g>
<path d="M102.948 56.7303C102.948 54.5882 103.937 52.8519 105.157 52.8519H114.242C115.462 52.8519 116.451 54.5882 116.451 56.7303C116.451 58.8725 115.462 60.6092 114.242 60.6092H105.157C103.937 60.6092 102.948 58.8725 102.948 56.7303Z" fill="white"/>
<mask id="mask22_859_2731" style="mask-type:luminance" maskUnits="userSpaceOnUse" x="98" y="48" width="23" height="18">
<path d="M120.939 48.3634H98.4595V65.0977H120.939V48.3634Z" fill="white"/>
<path d="M102.948 56.7303C102.948 54.5882 103.937 52.8519 105.157 52.8519H114.242C115.462 52.8519 116.451 54.5882 116.451 56.7303C116.451 58.8725 115.462 60.6092 114.242 60.6092H105.157C103.937 60.6092 102.948 58.8725 102.948 56.7303Z" fill="black"/>
</mask>
<g mask="url(#mask22_859_2731)">
<path d="M102.948 56.7303C102.948 54.5882 103.937 52.8519 105.157 52.8519H114.242C115.462 52.8519 116.451 54.5882 116.451 56.7303C116.451 58.8725 115.462 60.6092 114.242 60.6092H105.157C103.937 60.6092 102.948 58.8725 102.948 56.7303Z" stroke="black" stroke-width="8.97701" stroke-miterlimit="10" stroke-linejoin="round"/>
</g>
<mask id="mask23_859_2731" style="mask-type:luminance" maskUnits="userSpaceOnUse" x="99" y="51" width="21" height="20">
<path d="M119.023 51.2037H99.9854V70.241H119.023V51.2037Z" fill="black"/>
<path d="M99.9854 60.7223C99.9854 55.4655 104.247 51.2037 109.504 51.2037C114.761 51.2037 119.023 55.4655 119.023 60.7223C119.023 65.9792 114.761 70.2409 109.504 70.2409C104.247 70.2409 99.9854 65.9792 99.9854 60.7223Z" fill="white"/>
</mask>
<g mask="url(#mask23_859_2731)">
<path d="M99.9854 60.7223C99.9854 55.4655 104.247 51.2037 109.504 51.2037C114.761 51.2037 119.023 55.4655 119.023 60.7223C119.023 65.9792 114.761 70.2409 109.504 70.2409C104.247 70.2409 99.9854 65.9792 99.9854 60.7223Z" stroke="black" stroke-width="5.57062" stroke-miterlimit="10" stroke-linejoin="round"/>
</g>
</g>
<path d="M77.4806 110.745L74.6074 125.243" stroke="black" stroke-width="2.41135" stroke-miterlimit="10" stroke-linejoin="round"/>
<path d="M70.8198 128.573C70.8198 126.734 72.3106 125.243 74.15 125.243C75.9894 125.243 77.4805 126.734 77.4805 128.573C77.4805 130.413 75.9894 131.904 74.15 131.904C72.3106 131.904 70.8198 130.413 70.8198 128.573Z" fill="white" stroke="black" stroke-width="2.41135" stroke-miterlimit="10" stroke-linejoin="round"/>
<path d="M94.7754 110.745L97.649 125.243" stroke="black" stroke-width="2.41135" stroke-miterlimit="10" stroke-linejoin="round"/>
<path d="M101.436 128.573C101.436 126.734 99.9453 125.243 98.1059 125.243C96.2666 125.243 94.7754 126.734 94.7754 128.573C94.7754 130.413 96.2666 131.904 98.1059 131.904C99.9453 131.904 101.436 130.413 101.436 128.573Z" fill="white" stroke="black" stroke-width="2.41135" stroke-miterlimit="10" stroke-linejoin="round"/>
</svg>
