<svg width="122" height="286" viewBox="0 0 122 286" fill="none" xmlns="http://www.w3.org/2000/svg">
<path d="M44.7896 162.511C44.7896 160.903 45.7851 159.6 47.013 159.6H73.1827C74.4106 159.6 75.4062 160.903 75.4062 162.511V184.888C75.4062 186.496 74.4106 187.799 73.1827 187.799H47.013C45.7851 187.799 44.7896 186.496 44.7896 184.888V162.511Z" fill="white"/>
<path d="M32.4421 242.962C30.184 242.865 28.2633 244.287 28.1449 246.14L26.9098 265.494C25.316 265.219 23.7133 264.951 22.1368 264.787C21.2294 264.692 20.3554 264.645 19.5124 264.639C6.86979 264.553 1.77836 275.215 11.8578 285.022L51.1741 283.961C53.4322 284.058 55.3529 282.636 55.4709 280.783L57.6065 247.407C57.7249 245.554 55.9793 243.967 53.7212 243.87L32.4421 242.962Z" fill="white"/>
<mask id="mask0_859_2543" style="mask-type:luminance" maskUnits="userSpaceOnUse" x="6" y="242" width="52" height="44">
<path d="M57.6119 242.958H6.51318V285.022H57.6119V242.958Z" fill="black"/>
<path d="M32.4421 242.962C30.184 242.865 28.2633 244.287 28.1449 246.14L26.9098 265.494C25.316 265.219 23.7133 264.951 22.1368 264.787C21.2294 264.692 20.3554 264.645 19.5124 264.639C6.86979 264.553 1.77836 275.215 11.8578 285.022L51.1741 283.961C53.4322 284.058 55.3529 282.636 55.4709 280.783L57.6065 247.407C57.7249 245.554 55.9793 243.967 53.7212 243.87L32.4421 242.962Z" fill="white"/>
</mask>
<g mask="url(#mask0_859_2543)">
<path d="M32.4421 242.962C30.184 242.865 28.2633 244.287 28.1449 246.14L26.9098 265.494C25.316 265.219 23.7133 264.951 22.1368 264.787C21.2294 264.692 20.3554 264.645 19.5124 264.639C6.86979 264.553 1.77836 275.215 11.8578 285.022L51.1741 283.961C53.4322 284.058 55.3529 282.636 55.4709 280.783L57.6065 247.407C57.7249 245.554 55.9793 243.967 53.7212 243.87L32.4421 242.962Z" stroke="black" stroke-width="5.2178" stroke-miterlimit="10" stroke-linejoin="round"/>
</g>
<path d="M15.2708 273.88C15.2708 273.88 13.1327 277.347 15.811 280.353C18.489 283.359 21.9262 283.586 21.9262 283.586" stroke="black" stroke-width="2.60891" stroke-miterlimit="10" stroke-linecap="round" stroke-linejoin="round"/>
<path d="M87.9455 242.962C90.2036 242.865 92.1243 244.287 92.2427 246.14L93.4778 265.494C95.0716 265.219 96.6743 264.951 98.2508 264.787C99.1582 264.692 100.032 264.645 100.875 264.639C113.518 264.553 118.609 275.215 108.53 285.022L69.2135 283.961C66.9554 284.058 65.0347 282.636 64.9168 280.783L62.7811 247.407C62.6627 245.554 64.4083 243.967 66.6664 243.87L87.9455 242.962Z" fill="white"/>
<mask id="mask1_859_2543" style="mask-type:luminance" maskUnits="userSpaceOnUse" x="62" y="242" width="52" height="44">
<path d="M113.874 242.958H62.7754V285.022H113.874V242.958Z" fill="black"/>
<path d="M87.9455 242.962C90.2036 242.865 92.1243 244.287 92.2427 246.14L93.4778 265.494C95.0716 265.219 96.6743 264.951 98.2508 264.787C99.1582 264.692 100.032 264.645 100.875 264.639C113.518 264.553 118.609 275.215 108.53 285.022L69.2135 283.961C66.9554 284.058 65.0347 282.636 64.9168 280.783L62.7811 247.407C62.6627 245.554 64.4083 243.967 66.6664 243.87L87.9455 242.962Z" fill="white"/>
</mask>
<g mask="url(#mask1_859_2543)">
<path d="M87.9455 242.962C90.2036 242.865 92.1243 244.287 92.2427 246.14L93.4778 265.494C95.0716 265.219 96.6743 264.951 98.2508 264.787C99.1582 264.692 100.032 264.645 100.875 264.639C113.518 264.553 118.609 275.215 108.53 285.022L69.2135 283.961C66.9554 284.058 65.0347 282.636 64.9168 280.783L62.7811 247.407C62.6627 245.554 64.4083 243.967 66.6664 243.87L87.9455 242.962Z" stroke="black" stroke-width="5.2178" stroke-miterlimit="10" stroke-linejoin="round"/>
</g>
<path d="M105.116 273.88C105.116 273.88 107.254 277.347 104.576 280.353C101.898 283.359 98.4609 283.586 98.4609 283.586" stroke="black" stroke-width="2.60891" stroke-miterlimit="10" stroke-linecap="round" stroke-linejoin="round"/>
<path d="M18.3479 200.027C19.5794 197.254 23.3637 188.161 31.5501 183.071C37.1512 179.588 47.8164 181.339 47.8164 181.339L41.0828 226.66L12.771 226.543C12.771 226.543 13.5363 210.863 18.3479 200.027Z" fill="#116616"/>
<mask id="mask2_859_2543" style="mask-type:luminance" maskUnits="userSpaceOnUse" x="10" y="178" width="41" height="52">
<path d="M50.4253 178.29H10.1621V229.269H50.4253V178.29Z" fill="white"/>
<path d="M18.3479 200.027C19.5794 197.254 23.3637 188.161 31.5501 183.071C37.1512 179.588 47.8164 181.339 47.8164 181.339L41.0828 226.66L12.771 226.543C12.771 226.543 13.5363 210.863 18.3479 200.027Z" fill="black"/>
</mask>
<g mask="url(#mask2_859_2543)">
<path d="M18.3479 200.027C19.5794 197.254 23.3637 188.161 31.5501 183.071C37.1512 179.588 47.8164 181.339 47.8164 181.339L41.0828 226.66L12.771 226.543C12.771 226.543 13.5363 210.863 18.3479 200.027Z" stroke="black" stroke-width="5.2178" stroke-miterlimit="10" stroke-linejoin="round"/>
</g>
<path d="M101.67 200.027C100.439 197.254 96.6539 188.161 88.4674 183.071C82.8663 179.588 72.2012 181.339 72.2012 181.339L78.9347 226.66L107.247 226.543C107.247 226.543 106.482 210.863 101.67 200.027Z" fill="#116616"/>
<mask id="mask3_859_2543" style="mask-type:luminance" maskUnits="userSpaceOnUse" x="69" y="178" width="41" height="52">
<path d="M109.856 178.29H69.5923V229.269H109.856V178.29Z" fill="white"/>
<path d="M101.67 200.027C100.439 197.254 96.6539 188.161 88.4674 183.071C82.8663 179.588 72.2012 181.339 72.2012 181.339L78.9347 226.66L107.247 226.543C107.247 226.543 106.482 210.863 101.67 200.027Z" fill="black"/>
</mask>
<g mask="url(#mask3_859_2543)">
<path d="M101.67 200.027C100.439 197.254 96.6539 188.161 88.4674 183.071C82.8663 179.588 72.2012 181.339 72.2012 181.339L78.9347 226.66L107.247 226.543C107.247 226.543 106.482 210.863 101.67 200.027Z" stroke="black" stroke-width="5.2178" stroke-miterlimit="10" stroke-linejoin="round"/>
</g>
<path d="M120.387 231.88C120.387 226.132 115.875 220.462 108.499 217.219L91.8424 217.631C91.8424 217.631 77.6108 225.086 77.6108 230.886C77.6108 238.436 87.4902 243.398 99.6771 243.398C111.864 243.398 120.387 239.43 120.387 231.88Z" fill="white"/>
<mask id="mask4_859_2543" style="mask-type:luminance" maskUnits="userSpaceOnUse" x="77" y="217" width="44" height="27">
<path d="M120.387 217.219H77.6108V243.398H120.387V217.219Z" fill="black"/>
<path d="M120.387 231.88C120.387 226.132 115.875 220.462 108.499 217.219L91.8424 217.631C91.8424 217.631 77.6108 225.086 77.6108 230.886C77.6108 238.436 87.4902 243.398 99.6771 243.398C111.864 243.398 120.387 239.43 120.387 231.88Z" fill="white"/>
</mask>
<g mask="url(#mask4_859_2543)">
<path d="M120.387 231.88C120.387 226.132 115.875 220.462 108.499 217.219L91.8424 217.631C91.8424 217.631 77.6108 225.086 77.6108 230.886C77.6108 238.436 87.4902 243.398 99.6771 243.398C111.864 243.398 120.387 239.43 120.387 231.88Z" stroke="black" stroke-width="5.2178" stroke-miterlimit="10" stroke-linejoin="round"/>
</g>
<mask id="mask5_859_2543" style="mask-type:luminance" maskUnits="userSpaceOnUse" x="77" y="217" width="44" height="27">
<path d="M120.387 231.88C120.387 226.132 115.875 220.462 108.499 217.219L91.8424 217.631C91.8424 217.631 77.6108 225.086 77.6108 230.886C77.6108 238.436 87.4902 243.398 99.6771 243.398C111.864 243.398 120.387 239.43 120.387 231.88Z" fill="white"/>
</mask>
<g mask="url(#mask5_859_2543)">
<path d="M109.537 231.977C109.537 231.977 111.758 236.455 109.103 239.269C106.446 242.083 98.9121 243.233 98.9121 243.233" stroke="black" stroke-width="2.60891" stroke-miterlimit="10" stroke-linecap="round" stroke-linejoin="round"/>
</g>
<path d="M0 231.88C0 226.132 4.51252 220.462 11.8882 217.219L28.5449 217.631C28.5449 217.631 42.7765 225.086 42.7765 230.886C42.7765 238.436 32.8972 243.398 20.7103 243.398C8.52302 243.398 0 239.43 0 231.88Z" fill="white"/>
<mask id="mask6_859_2543" style="mask-type:luminance" maskUnits="userSpaceOnUse" x="0" y="217" width="43" height="27">
<path d="M42.7765 217.219H0V243.398H42.7765V217.219Z" fill="black"/>
<path d="M0 231.88C0 226.132 4.51252 220.462 11.8882 217.219L28.5449 217.631C28.5449 217.631 42.7765 225.086 42.7765 230.886C42.7765 238.436 32.8972 243.398 20.7103 243.398C8.52302 243.398 0 239.43 0 231.88Z" fill="white"/>
</mask>
<g mask="url(#mask6_859_2543)">
<path d="M0 231.88C0 226.132 4.51252 220.462 11.8882 217.219L28.5449 217.631C28.5449 217.631 42.7765 225.086 42.7765 230.886C42.7765 238.436 32.8972 243.398 20.7103 243.398C8.52302 243.398 0 239.43 0 231.88Z" stroke="black" stroke-width="5.2178" stroke-miterlimit="10" stroke-linejoin="round"/>
</g>
<mask id="mask7_859_2543" style="mask-type:luminance" maskUnits="userSpaceOnUse" x="0" y="217" width="43" height="27">
<path d="M0 231.88C0 226.132 4.51252 220.462 11.8882 217.219L28.5449 217.631C28.5449 217.631 42.7765 225.086 42.7765 230.886C42.7765 238.436 32.8972 243.398 20.7103 243.398C8.52302 243.398 0 239.43 0 231.88Z" fill="white"/>
</mask>
<g mask="url(#mask7_859_2543)">
<path d="M10.8509 231.977C10.8509 231.977 8.62907 236.455 11.2849 239.269C13.9411 242.083 21.4754 243.233 21.4754 243.233" stroke="black" stroke-width="2.60891" stroke-miterlimit="10" stroke-linecap="round" stroke-linejoin="round"/>
</g>
<path d="M35.1803 230.131C32.7625 229.88 30.4206 231.272 29.9484 233.234L25.2036 252.957C24.7314 254.919 26.322 256.523 28.7592 256.538L54.2892 256.695C56.7264 256.71 58.9543 255.117 59.2599 253.133L60.0091 243.401L60.7583 253.133C61.0638 255.117 63.2917 256.71 65.7285 256.695L91.2589 256.538C93.6957 256.523 95.2863 254.919 94.8141 252.957L90.0697 233.234C89.5975 231.272 87.2553 229.88 84.8374 230.131L62.0304 232.502C61.2575 232.582 60.5948 232.861 60.0091 233.215C59.4229 232.861 58.7603 232.582 57.9873 232.502L35.1803 230.131Z" fill="#393939" stroke="black" stroke-width="2.41135" stroke-miterlimit="10" stroke-linejoin="round"/>
<path d="M38.6595 185.308H81.3588C86.3282 185.308 90.5972 188.608 90.8935 192.68L93.631 230.317C93.9273 234.388 90.1386 237.689 85.1688 237.689H34.8491C29.8797 237.689 26.0906 234.388 26.3869 230.317L29.1248 192.68C29.4207 188.608 33.6897 185.308 38.6595 185.308Z" fill="#116616"/>
<mask id="mask8_859_2543" style="mask-type:luminance" maskUnits="userSpaceOnUse" x="26" y="185" width="68" height="53">
<path d="M93.6478 185.308H26.3711V237.689H93.6478V185.308Z" fill="black"/>
<path d="M38.6595 185.308H81.3588C86.3282 185.308 90.5972 188.608 90.8935 192.68L93.631 230.317C93.9273 234.388 90.1386 237.689 85.1688 237.689H34.8491C29.8797 237.689 26.0906 234.388 26.3869 230.317L29.1248 192.68C29.4207 188.608 33.6897 185.308 38.6595 185.308Z" fill="white"/>
</mask>
<g mask="url(#mask8_859_2543)">
<path d="M38.6595 185.308H81.3588C86.3282 185.308 90.5972 188.608 90.8935 192.68L93.631 230.317C93.9273 234.388 90.1386 237.689 85.1688 237.689H34.8491C29.8797 237.689 26.0906 234.388 26.3869 230.317L29.1248 192.68C29.4207 188.608 33.6897 185.308 38.6595 185.308Z" stroke="black" stroke-width="5.2178" stroke-miterlimit="10" stroke-linejoin="round"/>
</g>
<path d="M41.788 180.899C38.4216 180.897 34.3616 181.327 31.5613 183.068C24.6039 187.394 20.9488 194.391 19.2153 198.164H100.803C99.0691 194.391 95.4253 187.393 88.4688 183.068C85.6684 181.327 81.6084 180.896 78.242 180.899C74.8756 180.902 72.2061 181.339 72.2061 181.339L72.8016 185.305H47.2289L47.8239 181.339C47.8239 181.339 45.1544 180.902 41.788 180.899Z" fill="#116616"/>
<path d="M37.3101 173.761L60.4609 182.632L82.7078 173.761C86.5831 172.257 89.724 173.89 89.724 177.408V182.227C89.724 185.745 86.2497 188.596 81.9635 188.596H38.0545C33.7686 188.596 30.2939 185.745 30.2939 182.227V177.408C30.2939 173.89 33.4353 172.257 37.3101 173.761Z" fill="#116616"/>
<mask id="mask9_859_2543" style="mask-type:luminance" maskUnits="userSpaceOnUse" x="30" y="173" width="60" height="16">
<path d="M89.724 173.202H30.2939V188.596H89.724V173.202Z" fill="black"/>
<path d="M37.3101 173.761L60.4609 182.632L82.7078 173.761C86.5831 172.257 89.724 173.89 89.724 177.408V182.227C89.724 185.745 86.2497 188.596 81.9635 188.596H38.0545C33.7686 188.596 30.2939 185.745 30.2939 182.227V177.408C30.2939 173.89 33.4353 172.257 37.3101 173.761Z" fill="white"/>
</mask>
<g mask="url(#mask9_859_2543)">
<path d="M37.3101 173.761L60.4609 182.632L82.7078 173.761C86.5831 172.257 89.724 173.89 89.724 177.408V182.227C89.724 185.745 86.2497 188.596 81.9635 188.596H38.0545C33.7686 188.596 30.2939 185.745 30.2939 182.227V177.408C30.2939 173.89 33.4353 172.257 37.3101 173.761Z" stroke="black" stroke-width="5.2178" stroke-miterlimit="10" stroke-linejoin="round"/>
</g>
<path d="M63.1987 46.3418C63.1987 19.9937 63.1987 2 63.1987 2C63.1987 2 85.9707 16.0275 85.9707 42.3756C85.9707 68.7232 63.1987 97.1739 63.1987 97.1739C63.1987 97.1739 63.1987 72.6898 63.1987 46.3418Z" fill="white" stroke="black" stroke-width="2.78531" stroke-miterlimit="10" stroke-linejoin="round"/>
<mask id="mask10_859_2543" style="mask-type:luminance" maskUnits="userSpaceOnUse" x="63" y="2" width="23" height="96">
<path d="M63.1987 46.3418C63.1987 19.9937 63.1987 2 63.1987 2C63.1987 2 85.9707 16.0275 85.9707 42.3756C85.9707 68.7232 63.1987 97.1739 63.1987 97.1739C63.1987 97.1739 63.1987 72.6898 63.1987 46.3418Z" fill="white"/>
</mask>
<g mask="url(#mask10_859_2543)">
<path d="M68.7451 -3.43486C68.7451 -5.64582 70.5374 -7.43811 72.7484 -7.43811H102.035C104.246 -7.43811 106.038 -5.64582 106.038 -3.43486V94.1626C106.038 96.3736 104.246 98.1659 102.035 98.1659H72.7484C70.5374 98.1659 68.7451 96.3736 68.7451 94.1626V-3.43486Z" fill="#FFAAAD"/>
<path d="M63.1987 46.3417C63.1987 19.9937 63.1987 1.99994 63.1987 1.99994C63.1987 1.99994 85.9707 16.0274 85.9707 42.3755C85.9707 68.7231 63.1987 97.1739 63.1987 97.1739C63.1987 97.1739 63.1987 72.6898 63.1987 46.3417Z" stroke="black" stroke-width="2.78531" stroke-miterlimit="10" stroke-linejoin="round"/>
</g>
<path d="M57.1889 46.3418C57.1889 19.9937 57.1889 2 57.1889 2C57.1889 2 34.417 16.0275 34.417 42.3756C34.417 68.7232 57.1889 97.1739 57.1889 97.1739C57.1889 97.1739 57.1889 72.6898 57.1889 46.3418Z" fill="white" stroke="black" stroke-width="2.78531" stroke-miterlimit="10" stroke-linejoin="round"/>
<mask id="mask11_859_2543" style="mask-type:luminance" maskUnits="userSpaceOnUse" x="34" y="2" width="24" height="96">
<path d="M57.1889 46.3418C57.1889 19.9937 57.1889 2 57.1889 2C57.1889 2 34.417 16.0275 34.417 42.3756C34.417 68.7232 57.1889 97.1739 57.1889 97.1739C57.1889 97.1739 57.1889 72.6898 57.1889 46.3418Z" fill="white"/>
</mask>
<g mask="url(#mask11_859_2543)">
<path d="M51.6426 -3.43479C51.6426 -5.64576 49.8503 -7.43805 47.6394 -7.43805H18.3529C16.1419 -7.43805 14.3496 -5.64576 14.3496 -3.43479V94.1627C14.3496 96.3736 16.1419 98.1659 18.3529 98.1659H47.6394C49.8503 98.1659 51.6426 96.3736 51.6426 94.1627V-3.43479Z" fill="#FFAAAD"/>
<path d="M57.1889 46.3417C57.1889 19.9937 57.1889 1.99994 57.1889 1.99994C57.1889 1.99994 34.417 16.0274 34.417 42.3755C34.417 68.7231 57.1889 97.1739 57.1889 97.1739C57.1889 97.1739 57.1889 72.6898 57.1889 46.3417Z" stroke="black" stroke-width="2.78531" stroke-miterlimit="10" stroke-linejoin="round"/>
</g>
<path d="M60.1939 77.7527C33.6019 77.7527 11.9757 98.7413 10.8778 125.018C5.86573 128.654 2.48526 133.976 1.69419 141.147C-0.563882 161.609 18.6565 176.423 39.7251 176.423C44.1483 176.423 48.0034 176.114 51.5763 175.63C54.3786 176.123 57.2502 176.423 60.1939 176.423C63.2865 176.423 66.3043 176.109 69.2395 175.567C72.9388 176.098 76.9642 176.423 81.5934 176.423C102.662 176.423 121.895 161.609 119.637 141.147C118.797 133.529 115.011 128.029 109.472 124.389C108.057 98.4079 86.573 77.7527 60.1939 77.7527Z" fill="white" stroke="black" stroke-width="2.78531" stroke-miterlimit="10" stroke-linejoin="round"/>
<mask id="mask12_859_2543" style="mask-type:luminance" maskUnits="userSpaceOnUse" x="1" y="77" width="119" height="100">
<path d="M60.1939 77.7527C33.6019 77.7527 11.9757 98.7413 10.8778 125.018C5.86573 128.654 2.48526 133.976 1.69419 141.147C-0.563882 161.609 18.6565 176.423 39.7251 176.423C44.1483 176.423 48.0034 176.114 51.5763 175.63C54.3786 176.123 57.2502 176.423 60.1939 176.423C63.2865 176.423 66.3043 176.109 69.2395 175.567C72.9388 176.098 76.9642 176.423 81.5934 176.423C102.662 176.423 121.895 161.609 119.637 141.147C118.797 133.529 115.011 128.029 109.472 124.389C108.057 98.4079 86.573 77.7527 60.1939 77.7527Z" fill="white"/>
</mask>
<g mask="url(#mask12_859_2543)">
<path d="M73.9941 148.124C73.9941 134.496 85.0413 123.449 98.6691 123.449C112.297 123.449 123.344 134.496 123.344 148.124C123.344 161.752 112.297 172.799 98.6691 172.799C85.0413 172.799 73.9941 161.752 73.9941 148.124Z" fill="#FFAAAD"/>
<path d="M-2.95703 148.124C-2.95703 134.496 8.09057 123.449 21.7183 123.449C35.346 123.449 46.3932 134.496 46.3932 148.124C46.3932 161.752 35.346 172.799 21.7183 172.799C8.09057 172.799 -2.95703 161.752 -2.95703 148.124Z" fill="#FFAAAD"/>
</g>
<path d="M60.1939 77.7527C33.6019 77.7527 11.9757 98.7413 10.8778 125.018C5.86573 128.654 2.48526 133.976 1.69419 141.147C-0.563882 161.609 18.6565 176.423 39.7251 176.423C44.1483 176.423 48.0034 176.114 51.5763 175.63C54.3786 176.123 57.2502 176.423 60.1939 176.423C63.2865 176.423 66.3043 176.109 69.2395 175.567C72.9388 176.098 76.9642 176.423 81.5934 176.423C102.662 176.423 121.895 161.609 119.637 141.147C118.797 133.529 115.011 128.029 109.472 124.389C108.057 98.4079 86.573 77.7527 60.1939 77.7527Z" stroke="black" stroke-width="2.78531" stroke-miterlimit="10" stroke-linejoin="round"/>
<path d="M56.2197 139.838L53.4874 136.725C51.293 134.223 52.3268 132.196 55.7974 132.196H64.5906C68.0612 132.196 69.095 134.223 66.9006 136.725L64.1683 139.838C61.9734 142.34 58.4146 142.34 56.2197 139.838Z" fill="black"/>
<mask id="mask13_859_2543" style="mask-type:luminance" maskUnits="userSpaceOnUse" x="38" y="141" width="23" height="7">
<path d="M60.4242 141.992H38.8857V147.829H60.4242V141.992Z" fill="black"/>
<path d="M38.8857 147.829L60.4242 141.992L38.8857 147.829Z" fill="white"/>
</mask>
<g mask="url(#mask13_859_2543)">
<path d="M38.8857 147.829L60.4242 141.992L38.8857 147.829Z" stroke="black" stroke-width="5.57062" stroke-miterlimit="10" stroke-linejoin="round"/>
</g>
<path d="M39.9668 147.829C39.9668 147.829 43.6363 151.801 49.4854 151.801C49.4854 151.801 58.6437 153.287 61.942 136.955" stroke="black" stroke-width="2.78531" stroke-miterlimit="10" stroke-linecap="round" stroke-linejoin="round"/>
<path d="M81.3643 147.829C81.3643 147.829 77.6944 151.801 71.8457 151.801C71.8457 151.801 62.687 153.287 59.3887 136.955" stroke="black" stroke-width="2.78531" stroke-miterlimit="10" stroke-linecap="round" stroke-linejoin="round"/>
<path d="M38.8857 113.315H43.7167" stroke="black" stroke-width="2.78531" stroke-miterlimit="10" stroke-linecap="round" stroke-linejoin="round"/>
<path d="M76.8667 113.315H81.6977" stroke="black" stroke-width="2.78531" stroke-miterlimit="10" stroke-linecap="round" stroke-linejoin="round"/>
<path d="M29.1714 132.196C29.1714 126.939 33.4331 122.677 38.69 122.677C43.9469 122.677 48.2086 126.939 48.2086 132.196C48.2086 137.453 43.9469 141.714 38.69 141.714C33.4331 141.714 29.1714 137.453 29.1714 132.196Z" fill="white"/>
<mask id="mask14_859_2543" style="mask-type:luminance" maskUnits="userSpaceOnUse" x="29" y="122" width="20" height="20">
<path d="M48.2086 122.677H29.1714V141.714H48.2086V122.677Z" fill="black"/>
<path d="M29.1714 132.196C29.1714 126.939 33.4331 122.677 38.69 122.677C43.9469 122.677 48.2086 126.939 48.2086 132.196C48.2086 137.453 43.9469 141.714 38.69 141.714C33.4331 141.714 29.1714 137.453 29.1714 132.196Z" fill="white"/>
</mask>
<g mask="url(#mask14_859_2543)">
<path d="M29.1714 132.196C29.1714 126.939 33.4331 122.677 38.69 122.677C43.9469 122.677 48.2086 126.939 48.2086 132.196C48.2086 137.453 43.9469 141.714 38.69 141.714C33.4331 141.714 29.1714 137.453 29.1714 132.196Z" stroke="black" stroke-width="5.57062" stroke-miterlimit="10" stroke-linejoin="round"/>
</g>
<mask id="mask15_859_2543" style="mask-type:luminance" maskUnits="userSpaceOnUse" x="29" y="122" width="20" height="20">
<path d="M29.1714 132.196C29.1714 126.939 33.4331 122.677 38.69 122.677C43.9469 122.677 48.2086 126.939 48.2086 132.196C48.2086 137.453 43.9469 141.714 38.69 141.714C33.4331 141.714 29.1714 137.453 29.1714 132.196Z" fill="white"/>
</mask>
<g mask="url(#mask15_859_2543)">
<path d="M36.7178 139.473C36.7178 138.083 37.0535 136.955 37.4678 136.955H40.5511C40.9654 136.955 41.3012 138.083 41.3012 139.473C41.3012 140.865 40.9654 141.992 40.5511 141.992H37.4678C37.0535 141.992 36.7178 140.865 36.7178 139.473Z" fill="white"/>
<mask id="mask16_859_2543" style="mask-type:luminance" maskUnits="userSpaceOnUse" x="32" y="132" width="14" height="15">
<path d="M45.7899 132.467H32.2295V146.481H45.7899V132.467Z" fill="white"/>
<path d="M36.7178 139.473C36.7178 138.083 37.0535 136.955 37.4678 136.955H40.5511C40.9654 136.955 41.3012 138.083 41.3012 139.473C41.3012 140.865 40.9654 141.992 40.5511 141.992H37.4678C37.0535 141.992 36.7178 140.865 36.7178 139.473Z" fill="black"/>
</mask>
<g mask="url(#mask16_859_2543)">
<path d="M36.7178 139.473C36.7178 138.083 37.0535 136.955 37.4678 136.955H40.5511C40.9654 136.955 41.3012 138.083 41.3012 139.473C41.3012 140.865 40.9654 141.992 40.5511 141.992H37.4678C37.0535 141.992 36.7178 140.865 36.7178 139.473Z" stroke="black" stroke-width="8.97701" stroke-miterlimit="10" stroke-linejoin="round"/>
</g>
<path d="M32.1343 128.204C32.1343 126.062 33.1234 124.325 34.3432 124.325H43.4279C44.6477 124.325 45.6368 126.062 45.6368 128.204C45.6368 130.346 44.6477 132.083 43.4279 132.083H34.3432C33.1234 132.083 32.1343 130.346 32.1343 128.204Z" fill="white"/>
<mask id="mask17_859_2543" style="mask-type:luminance" maskUnits="userSpaceOnUse" x="27" y="119" width="24" height="18">
<path d="M50.1256 119.837H27.646V136.571H50.1256V119.837Z" fill="white"/>
<path d="M32.1343 128.204C32.1343 126.062 33.1234 124.325 34.3432 124.325H43.4279C44.6477 124.325 45.6368 126.062 45.6368 128.204C45.6368 130.346 44.6477 132.083 43.4279 132.083H34.3432C33.1234 132.083 32.1343 130.346 32.1343 128.204Z" fill="black"/>
</mask>
<g mask="url(#mask17_859_2543)">
<path d="M32.1343 128.204C32.1343 126.062 33.1234 124.325 34.3432 124.325H43.4279C44.6477 124.325 45.6368 126.062 45.6368 128.204C45.6368 130.346 44.6477 132.083 43.4279 132.083H34.3432C33.1234 132.083 32.1343 130.346 32.1343 128.204Z" stroke="black" stroke-width="8.97701" stroke-miterlimit="10" stroke-linejoin="round"/>
</g>
<mask id="mask18_859_2543" style="mask-type:luminance" maskUnits="userSpaceOnUse" x="29" y="122" width="20" height="20">
<path d="M48.2086 122.677H29.1714V141.714H48.2086V122.677Z" fill="black"/>
<path d="M29.1714 132.196C29.1714 126.939 33.4331 122.677 38.69 122.677C43.9469 122.677 48.2086 126.939 48.2086 132.196C48.2086 137.453 43.9469 141.714 38.69 141.714C33.4331 141.714 29.1714 137.453 29.1714 132.196Z" fill="white"/>
</mask>
<g mask="url(#mask18_859_2543)">
<path d="M29.1714 132.196C29.1714 126.939 33.4331 122.677 38.69 122.677C43.9469 122.677 48.2086 126.939 48.2086 132.196C48.2086 137.453 43.9469 141.714 38.69 141.714C33.4331 141.714 29.1714 137.453 29.1714 132.196Z" stroke="black" stroke-width="5.57062" stroke-miterlimit="10" stroke-linejoin="round"/>
</g>
</g>
<path d="M72.1792 132.196C72.1792 126.939 76.4409 122.677 81.6978 122.677C86.9547 122.677 91.2164 126.939 91.2164 132.196C91.2164 137.453 86.9547 141.714 81.6978 141.714C76.4409 141.714 72.1792 137.453 72.1792 132.196Z" fill="white"/>
<mask id="mask19_859_2543" style="mask-type:luminance" maskUnits="userSpaceOnUse" x="72" y="122" width="20" height="20">
<path d="M91.2164 122.677H72.1792V141.714H91.2164V122.677Z" fill="black"/>
<path d="M72.1792 132.196C72.1792 126.939 76.4409 122.677 81.6978 122.677C86.9547 122.677 91.2164 126.939 91.2164 132.196C91.2164 137.453 86.9547 141.714 81.6978 141.714C76.4409 141.714 72.1792 137.453 72.1792 132.196Z" fill="white"/>
</mask>
<g mask="url(#mask19_859_2543)">
<path d="M72.1792 132.196C72.1792 126.939 76.4409 122.677 81.6978 122.677C86.9547 122.677 91.2164 126.939 91.2164 132.196C91.2164 137.453 86.9547 141.714 81.6978 141.714C76.4409 141.714 72.1792 137.453 72.1792 132.196Z" stroke="black" stroke-width="5.57062" stroke-miterlimit="10" stroke-linejoin="round"/>
</g>
<mask id="mask20_859_2543" style="mask-type:luminance" maskUnits="userSpaceOnUse" x="72" y="122" width="20" height="20">
<path d="M72.1792 132.196C72.1792 126.939 76.4409 122.677 81.6978 122.677C86.9547 122.677 91.2164 126.939 91.2164 132.196C91.2164 137.453 86.9547 141.714 81.6978 141.714C76.4409 141.714 72.1792 137.453 72.1792 132.196Z" fill="white"/>
</mask>
<g mask="url(#mask20_859_2543)">
<path d="M79.7256 139.473C79.7256 138.083 80.0613 136.955 80.4752 136.955H83.559C83.9732 136.955 84.309 138.083 84.309 139.473C84.309 140.865 83.9732 141.992 83.559 141.992H80.4752C80.0613 141.992 79.7256 140.865 79.7256 139.473Z" fill="white"/>
<mask id="mask21_859_2543" style="mask-type:luminance" maskUnits="userSpaceOnUse" x="75" y="132" width="14" height="15">
<path d="M88.7972 132.467H75.2368V146.481H88.7972V132.467Z" fill="white"/>
<path d="M79.7256 139.473C79.7256 138.083 80.0613 136.955 80.4752 136.955H83.559C83.9732 136.955 84.309 138.083 84.309 139.473C84.309 140.865 83.9732 141.992 83.559 141.992H80.4752C80.0613 141.992 79.7256 140.865 79.7256 139.473Z" fill="black"/>
</mask>
<g mask="url(#mask21_859_2543)">
<path d="M79.7256 139.473C79.7256 138.083 80.0613 136.955 80.4752 136.955H83.559C83.9732 136.955 84.309 138.083 84.309 139.473C84.309 140.865 83.9732 141.992 83.559 141.992H80.4752C80.0613 141.992 79.7256 140.865 79.7256 139.473Z" stroke="black" stroke-width="8.97701" stroke-miterlimit="10" stroke-linejoin="round"/>
</g>
<path d="M75.1421 128.204C75.1421 126.062 76.1308 124.325 77.351 124.325H86.4353C87.6555 124.325 88.6446 126.062 88.6446 128.204C88.6446 130.346 87.6555 132.083 86.4353 132.083H77.351C76.1308 132.083 75.1421 130.346 75.1421 128.204Z" fill="white"/>
<mask id="mask22_859_2543" style="mask-type:luminance" maskUnits="userSpaceOnUse" x="70" y="119" width="24" height="18">
<path d="M93.1329 119.837H70.6533V136.571H93.1329V119.837Z" fill="white"/>
<path d="M75.1421 128.204C75.1421 126.062 76.1308 124.325 77.351 124.325H86.4353C87.6555 124.325 88.6446 126.062 88.6446 128.204C88.6446 130.346 87.6555 132.083 86.4353 132.083H77.351C76.1308 132.083 75.1421 130.346 75.1421 128.204Z" fill="black"/>
</mask>
<g mask="url(#mask22_859_2543)">
<path d="M75.1421 128.204C75.1421 126.062 76.1308 124.325 77.351 124.325H86.4353C87.6555 124.325 88.6446 126.062 88.6446 128.204C88.6446 130.346 87.6555 132.083 86.4353 132.083H77.351C76.1308 132.083 75.1421 130.346 75.1421 128.204Z" stroke="black" stroke-width="8.97701" stroke-miterlimit="10" stroke-linejoin="round"/>
</g>
<mask id="mask23_859_2543" style="mask-type:luminance" maskUnits="userSpaceOnUse" x="72" y="122" width="20" height="20">
<path d="M91.2164 122.677H72.1792V141.714H91.2164V122.677Z" fill="black"/>
<path d="M72.1792 132.196C72.1792 126.939 76.4409 122.677 81.6978 122.677C86.9547 122.677 91.2164 126.939 91.2164 132.196C91.2164 137.453 86.9547 141.714 81.6978 141.714C76.4409 141.714 72.1792 137.453 72.1792 132.196Z" fill="white"/>
</mask>
<g mask="url(#mask23_859_2543)">
<path d="M72.1792 132.196C72.1792 126.939 76.4409 122.677 81.6978 122.677C86.9547 122.677 91.2164 126.939 91.2164 132.196C91.2164 137.453 86.9547 141.714 81.6978 141.714C76.4409 141.714 72.1792 137.453 72.1792 132.196Z" stroke="black" stroke-width="5.57062" stroke-miterlimit="10" stroke-linejoin="round"/>
</g>
</g>
<path d="M51.4508 187.799L48.5771 202.296" stroke="black" stroke-width="2.41135" stroke-miterlimit="10" stroke-linejoin="round"/>
<path d="M44.7896 205.627C44.7896 203.788 46.2807 202.296 48.1201 202.296C49.9595 202.296 51.4506 203.788 51.4506 205.627C51.4506 207.466 49.9595 208.958 48.1201 208.958C46.2807 208.958 44.7896 207.466 44.7896 205.627Z" fill="white" stroke="black" stroke-width="2.41135" stroke-miterlimit="10" stroke-linejoin="round"/>
<path d="M68.7451 187.799L71.6183 202.296" stroke="black" stroke-width="2.41135" stroke-miterlimit="10" stroke-linejoin="round"/>
<path d="M75.4062 205.627C75.4062 203.788 73.915 202.296 72.0756 202.296C70.2363 202.296 68.7451 203.788 68.7451 205.627C68.7451 207.466 70.2363 208.958 72.0756 208.958C73.915 208.958 75.4062 207.466 75.4062 205.627Z" fill="white" stroke="black" stroke-width="2.41135" stroke-miterlimit="10" stroke-linejoin="round"/>
</svg>
