<svg width="153" height="223" viewBox="0 0 153 223" fill="none" xmlns="http://www.w3.org/2000/svg">
<path d="M79.6475 58.5183C79.6475 25.7795 79.6475 3.42139 79.6475 3.42139C79.6475 3.42139 107.943 20.8513 107.943 53.5901C107.943 86.3284 79.6475 121.68 79.6475 121.68C79.6475 121.68 79.6475 91.2571 79.6475 58.5183Z" fill="white" stroke="black" stroke-width="5.41582" stroke-miterlimit="10" stroke-linejoin="round"/>
<mask id="mask0_872_1753" style="mask-type:luminance" maskUnits="userSpaceOnUse" x="79" y="3" width="29" height="119">
<path d="M79.6494 58.5183C79.6494 25.7795 79.6494 3.42139 79.6494 3.42139C79.6494 3.42139 107.945 20.8513 107.945 53.5901C107.945 86.3284 79.6494 121.68 79.6494 121.68C79.6494 121.68 79.6494 91.2571 79.6494 58.5183Z" fill="white"/>
</mask>
<g mask="url(#mask0_872_1753)">
<path d="M86.54 -3.33141C86.54 -6.07866 88.767 -8.30566 91.5143 -8.30566H127.904C130.651 -8.30566 132.878 -6.07866 132.878 -3.33141V117.938C132.878 120.686 130.651 122.913 127.904 122.913H91.5143C88.767 122.913 86.54 120.686 86.54 117.938V-3.33141Z" fill="#FFAAAD"/>
<path d="M79.6484 58.5188C79.6484 25.78 79.6484 3.42188 79.6484 3.42188C79.6484 3.42188 107.944 20.8518 107.944 53.5906C107.944 86.3289 79.6484 121.68 79.6484 121.68C79.6484 121.68 79.6484 91.2576 79.6484 58.5188Z" stroke="black" stroke-width="5.41582" stroke-miterlimit="10" stroke-linejoin="round"/>
</g>
<path d="M72.1801 58.5183C72.1801 25.7795 72.1801 3.42139 72.1801 3.42139C72.1801 3.42139 43.8848 20.8513 43.8848 53.5901C43.8848 86.3284 72.1801 121.68 72.1801 121.68C72.1801 121.68 72.1801 91.2571 72.1801 58.5183Z" fill="white" stroke="black" stroke-width="5.41582" stroke-miterlimit="10" stroke-linejoin="round"/>
<mask id="mask1_872_1753" style="mask-type:luminance" maskUnits="userSpaceOnUse" x="43" y="3" width="30" height="119">
<path d="M72.1791 58.5183C72.1791 25.7795 72.1791 3.42139 72.1791 3.42139C72.1791 3.42139 43.8838 20.8513 43.8838 53.5901C43.8838 86.3284 72.1791 121.68 72.1791 121.68C72.1791 121.68 72.1791 91.2571 72.1791 58.5183Z" fill="white"/>
</mask>
<g mask="url(#mask1_872_1753)">
<path d="M65.2867 -3.33141C65.2867 -6.07866 63.0597 -8.30566 60.3125 -8.30566H23.9225C21.1752 -8.30566 18.9482 -6.07866 18.9482 -3.33141V117.938C18.9482 120.686 21.1752 122.913 23.9225 122.913H60.3125C63.0597 122.913 65.2867 120.686 65.2867 117.938V-3.33141Z" fill="#FFAAAD"/>
<path d="M72.1781 58.5188C72.1781 25.78 72.1781 3.42188 72.1781 3.42188C72.1781 3.42188 43.8828 20.8518 43.8828 53.5906C43.8828 86.3289 72.1781 121.68 72.1781 121.68C72.1781 121.68 72.1781 91.2576 72.1781 58.5188Z" stroke="black" stroke-width="5.41582" stroke-miterlimit="10" stroke-linejoin="round"/>
</g>
<path d="M75.9138 97.5483C42.8719 97.5483 16.0002 123.628 14.6361 156.278C8.40826 160.796 4.20785 167.409 3.22491 176.318C0.419139 201.744 24.3015 220.151 50.4803 220.151C55.9763 220.151 60.7664 219.767 65.206 219.166C68.688 219.778 72.2561 220.151 75.9138 220.151C79.7565 220.151 83.5062 219.762 87.1534 219.088C91.75 219.747 96.7517 220.151 102.504 220.151C128.683 220.151 152.581 201.744 149.775 176.318C148.731 166.854 144.027 160.019 137.145 155.497C135.387 123.213 108.691 97.5483 75.9138 97.5483Z" fill="white" stroke="black" stroke-width="5.41582" stroke-miterlimit="10" stroke-linejoin="round"/>
<mask id="mask2_872_1753" style="mask-type:luminance" maskUnits="userSpaceOnUse" x="3" y="97" width="147" height="124">
<path d="M75.9138 97.5483C42.8719 97.5483 16.0002 123.628 14.6361 156.278C8.40826 160.796 4.20785 167.409 3.22491 176.318C0.419139 201.744 24.3015 220.151 50.4803 220.151C55.9763 220.151 60.7664 219.767 65.206 219.166C68.688 219.778 72.2561 220.151 75.9138 220.151C79.7565 220.151 83.5062 219.762 87.1534 219.088C91.75 219.747 96.7517 220.151 102.504 220.151C128.683 220.151 152.581 201.744 149.775 176.318C148.731 166.854 144.027 160.019 137.145 155.497C135.387 123.213 108.691 97.5483 75.9138 97.5483Z" fill="white"/>
</mask>
<g mask="url(#mask2_872_1753)">
<path d="M93.0615 184.988C93.0615 168.055 106.788 154.329 123.721 154.329C140.655 154.329 154.382 168.055 154.382 184.988C154.382 201.922 140.655 215.649 123.721 215.649C106.788 215.649 93.0615 201.922 93.0615 184.988Z" fill="#FFAAAD"/>
<path d="M-2.55469 184.988C-2.55469 168.055 11.1725 154.329 28.1057 154.329C45.0388 154.329 58.7656 168.055 58.7656 184.988C58.7656 201.922 45.0388 215.649 28.1057 215.649C11.1725 215.649 -2.55469 201.922 -2.55469 184.988Z" fill="#FFAAAD"/>
</g>
<path d="M75.9138 97.5483C42.8719 97.5483 16.0002 123.628 14.6361 156.278C8.40826 160.796 4.20785 167.409 3.22491 176.318C0.419139 201.744 24.3015 220.151 50.4803 220.151C55.9763 220.151 60.7664 219.767 65.206 219.166C68.688 219.778 72.2561 220.151 75.9138 220.151C79.7565 220.151 83.5062 219.762 87.1534 219.088C91.75 219.747 96.7517 220.151 102.504 220.151C128.683 220.151 152.581 201.744 149.775 176.318C148.731 166.854 144.027 160.019 137.145 155.497C135.387 123.213 108.691 97.5483 75.9138 97.5483Z" stroke="black" stroke-width="5.41582" stroke-miterlimit="10" stroke-linejoin="round"/>
<path d="M70.9749 174.693L67.5798 170.824C64.8531 167.716 66.1377 165.196 70.4501 165.196H81.3761C85.6885 165.196 86.9731 167.716 84.2464 170.824L80.8513 174.693C78.1241 177.801 73.7021 177.801 70.9749 174.693Z" fill="black"/>
<mask id="mask3_872_1753" style="mask-type:luminance" maskUnits="userSpaceOnUse" x="49" y="177" width="28" height="8">
<path d="M76.2001 177.37H49.4375V184.621H76.2001V177.37Z" fill="black"/>
<path d="M49.4375 184.621L76.2001 177.37L49.4375 184.621Z" fill="white"/>
</mask>
<g mask="url(#mask3_872_1753)">
<path d="M49.4375 184.621L76.2001 177.37L49.4375 184.621Z" stroke="black" stroke-width="10.8316" stroke-miterlimit="10" stroke-linejoin="round"/>
</g>
<path d="M50.7812 184.621C50.7812 184.621 55.3408 189.557 62.6086 189.557C62.6086 189.557 73.9883 191.404 78.0866 171.11" stroke="black" stroke-width="5.41582" stroke-miterlimit="10" stroke-linecap="round" stroke-linejoin="round"/>
<path d="M102.219 184.621C102.219 184.621 97.6589 189.557 90.3916 189.557C90.3916 189.557 79.0114 191.404 74.9131 171.11" stroke="black" stroke-width="5.41582" stroke-miterlimit="10" stroke-linecap="round" stroke-linejoin="round"/>
<path d="M49.4375 141.737H55.4402" stroke="black" stroke-width="5.41582" stroke-miterlimit="10" stroke-linecap="round" stroke-linejoin="round"/>
<path d="M96.6299 141.737H102.633" stroke="black" stroke-width="5.41582" stroke-miterlimit="10" stroke-linecap="round" stroke-linejoin="round"/>
<path d="M37.3662 165.196C37.3662 158.664 42.6616 153.369 49.1936 153.369C55.7255 153.369 61.0209 158.664 61.0209 165.196C61.0209 171.728 55.7255 177.023 49.1936 177.023C42.6616 177.023 37.3662 171.728 37.3662 165.196Z" fill="white"/>
<mask id="mask4_872_1753" style="mask-type:luminance" maskUnits="userSpaceOnUse" x="37" y="153" width="25" height="25">
<path d="M61.02 153.368H37.3652V177.023H61.02V153.368Z" fill="black"/>
<path d="M37.3652 165.196C37.3652 158.664 42.6606 153.368 49.1926 153.368C55.7245 153.368 61.0199 158.664 61.0199 165.196C61.0199 171.728 55.7245 177.023 49.1926 177.023C42.6606 177.023 37.3652 171.728 37.3652 165.196Z" fill="white"/>
</mask>
<g mask="url(#mask4_872_1753)">
<path d="M37.3652 165.196C37.3652 158.664 42.6606 153.368 49.1926 153.368C55.7245 153.368 61.0199 158.664 61.0199 165.196C61.0199 171.728 55.7245 177.023 49.1926 177.023C42.6606 177.023 37.3652 171.728 37.3652 165.196Z" stroke="black" stroke-width="10.8316" stroke-miterlimit="10" stroke-linejoin="round"/>
</g>
<mask id="mask5_872_1753" style="mask-type:luminance" maskUnits="userSpaceOnUse" x="37" y="153" width="25" height="25">
<path d="M37.3652 165.196C37.3652 158.664 42.6606 153.368 49.1926 153.368C55.7245 153.368 61.0199 158.664 61.0199 165.196C61.0199 171.728 55.7245 177.023 49.1926 177.023C42.6606 177.023 37.3652 171.728 37.3652 165.196Z" fill="white"/>
</mask>
<g mask="url(#mask5_872_1753)">
<path d="M46.7422 174.239C46.7422 172.51 47.1594 171.109 47.6741 171.109H51.5053C52.0201 171.109 52.4373 172.51 52.4373 174.239C52.4373 175.968 52.0201 177.369 51.5053 177.369H47.6741C47.1594 177.369 46.7422 175.968 46.7422 174.239Z" fill="white"/>
<mask id="mask6_872_1753" style="mask-type:luminance" maskUnits="userSpaceOnUse" x="41" y="165" width="18" height="18">
<path d="M58.0155 165.532H41.166V182.946H58.0155V165.532Z" fill="white"/>
<path d="M46.7432 174.238C46.7432 172.51 47.1604 171.109 47.6751 171.109H51.5063C52.0211 171.109 52.4382 172.51 52.4382 174.238C52.4382 175.967 52.0211 177.368 51.5063 177.368H47.6751C47.1604 177.368 46.7432 175.967 46.7432 174.238Z" fill="black"/>
</mask>
<g mask="url(#mask6_872_1753)">
<path d="M46.7432 174.239C46.7432 172.51 47.1604 171.109 47.6751 171.109H51.5063C52.0211 171.109 52.4382 172.51 52.4382 174.239C52.4382 175.968 52.0211 177.369 51.5063 177.369H47.6751C47.1604 177.369 46.7432 175.968 46.7432 174.239Z" stroke="black" stroke-width="17.4551" stroke-miterlimit="10" stroke-linejoin="round"/>
</g>
<path d="M41.0469 160.236C41.0469 157.574 42.2759 155.417 43.7916 155.417H55.0797C56.5954 155.417 57.8245 157.574 57.8245 160.236C57.8245 162.897 56.5954 165.055 55.0797 165.055H43.7916C42.2759 165.055 41.0469 162.897 41.0469 160.236Z" fill="white"/>
<mask id="mask7_872_1753" style="mask-type:luminance" maskUnits="userSpaceOnUse" x="35" y="149" width="29" height="22">
<path d="M63.4018 149.839H35.4697V170.633H63.4018V149.839Z" fill="white"/>
<path d="M41.0469 160.236C41.0469 157.574 42.2759 155.417 43.7916 155.417H55.0797C56.5954 155.417 57.8245 157.574 57.8245 160.236C57.8245 162.897 56.5954 165.055 55.0797 165.055H43.7916C42.2759 165.055 41.0469 162.897 41.0469 160.236Z" fill="black"/>
</mask>
<g mask="url(#mask7_872_1753)">
<path d="M41.0469 160.236C41.0469 157.574 42.2759 155.417 43.7916 155.417H55.0797C56.5954 155.417 57.8245 157.574 57.8245 160.236C57.8245 162.897 56.5954 165.055 55.0797 165.055H43.7916C42.2759 165.055 41.0469 162.897 41.0469 160.236Z" stroke="black" stroke-width="17.4551" stroke-miterlimit="10" stroke-linejoin="round"/>
</g>
<mask id="mask8_872_1753" style="mask-type:luminance" maskUnits="userSpaceOnUse" x="37" y="153" width="25" height="25">
<path d="M61.019 153.368H37.3643V177.022H61.019V153.368Z" fill="black"/>
<path d="M37.3643 165.195C37.3643 158.663 42.6596 153.368 49.1916 153.368C55.7236 153.368 61.019 158.663 61.019 165.195C61.019 171.727 55.7236 177.022 49.1916 177.022C42.6596 177.022 37.3643 171.727 37.3643 165.195Z" fill="white"/>
</mask>
<g mask="url(#mask8_872_1753)">
<path d="M37.3643 165.195C37.3643 158.663 42.6596 153.368 49.1916 153.368C55.7236 153.368 61.019 158.663 61.019 165.195C61.019 171.727 55.7236 177.022 49.1916 177.022C42.6596 177.022 37.3643 171.727 37.3643 165.195Z" stroke="black" stroke-width="10.8316" stroke-miterlimit="10" stroke-linejoin="round"/>
</g>
</g>
<path d="M90.8066 165.196C90.8066 158.664 96.102 153.369 102.634 153.369C109.166 153.369 114.461 158.664 114.461 165.196C114.461 171.728 109.166 177.023 102.634 177.023C96.102 177.023 90.8066 171.728 90.8066 165.196Z" fill="white"/>
<mask id="mask9_872_1753" style="mask-type:luminance" maskUnits="userSpaceOnUse" x="90" y="153" width="25" height="25">
<path d="M114.462 153.368H90.8076V177.023H114.462V153.368Z" fill="black"/>
<path d="M90.8076 165.196C90.8076 158.664 96.103 153.368 102.635 153.368C109.167 153.368 114.462 158.664 114.462 165.196C114.462 171.728 109.167 177.023 102.635 177.023C96.103 177.023 90.8076 171.728 90.8076 165.196Z" fill="white"/>
</mask>
<g mask="url(#mask9_872_1753)">
<path d="M90.8076 165.196C90.8076 158.664 96.103 153.368 102.635 153.368C109.167 153.368 114.462 158.664 114.462 165.196C114.462 171.728 109.167 177.023 102.635 177.023C96.103 177.023 90.8076 171.728 90.8076 165.196Z" stroke="black" stroke-width="10.8316" stroke-miterlimit="10" stroke-linejoin="round"/>
</g>
<mask id="mask10_872_1753" style="mask-type:luminance" maskUnits="userSpaceOnUse" x="90" y="153" width="25" height="25">
<path d="M90.8066 165.196C90.8066 158.664 96.102 153.368 102.634 153.368C109.166 153.368 114.461 158.664 114.461 165.196C114.461 171.728 109.166 177.023 102.634 177.023C96.102 177.023 90.8066 171.728 90.8066 165.196Z" fill="white"/>
</mask>
<g mask="url(#mask10_872_1753)">
<path d="M100.183 174.239C100.183 172.51 100.6 171.109 101.114 171.109H104.946C105.461 171.109 105.878 172.51 105.878 174.239C105.878 175.968 105.461 177.369 104.946 177.369H101.114C100.6 177.369 100.183 175.968 100.183 174.239Z" fill="white"/>
<mask id="mask11_872_1753" style="mask-type:luminance" maskUnits="userSpaceOnUse" x="94" y="165" width="18" height="18">
<path d="M111.454 165.533H94.6045V182.946H111.454V165.533Z" fill="white"/>
<path d="M100.183 174.239C100.183 172.51 100.6 171.109 101.114 171.109H104.946C105.461 171.109 105.878 172.51 105.878 174.239C105.878 175.968 105.461 177.369 104.946 177.369H101.114C100.6 177.369 100.183 175.968 100.183 174.239Z" fill="black"/>
</mask>
<g mask="url(#mask11_872_1753)">
<path d="M100.183 174.239C100.183 172.51 100.6 171.109 101.114 171.109H104.946C105.461 171.109 105.878 172.51 105.878 174.239C105.878 175.968 105.461 177.369 104.946 177.369H101.114C100.6 177.369 100.183 175.968 100.183 174.239Z" stroke="black" stroke-width="17.4551" stroke-miterlimit="10" stroke-linejoin="round"/>
</g>
<path d="M94.4883 160.236C94.4883 157.574 95.7168 155.417 97.233 155.417H108.521C110.037 155.417 111.266 157.574 111.266 160.236C111.266 162.897 110.037 165.055 108.521 165.055H97.233C95.7168 165.055 94.4883 162.897 94.4883 160.236Z" fill="white"/>
<mask id="mask12_872_1753" style="mask-type:luminance" maskUnits="userSpaceOnUse" x="88" y="149" width="29" height="22">
<path d="M116.842 149.839H88.9102V170.633H116.842V149.839Z" fill="white"/>
<path d="M94.4883 160.236C94.4883 157.574 95.7168 155.417 97.233 155.417H108.521C110.037 155.417 111.266 157.574 111.266 160.236C111.266 162.897 110.037 165.055 108.521 165.055H97.233C95.7168 165.055 94.4883 162.897 94.4883 160.236Z" fill="black"/>
</mask>
<g mask="url(#mask12_872_1753)">
<path d="M94.4883 160.236C94.4883 157.574 95.7168 155.417 97.233 155.417H108.521C110.037 155.417 111.266 157.574 111.266 160.236C111.266 162.897 110.037 165.055 108.521 165.055H97.233C95.7168 165.055 94.4883 162.897 94.4883 160.236Z" stroke="black" stroke-width="17.4551" stroke-miterlimit="10" stroke-linejoin="round"/>
</g>
<mask id="mask13_872_1753" style="mask-type:luminance" maskUnits="userSpaceOnUse" x="90" y="153" width="25" height="25">
<path d="M114.462 153.368H90.8076V177.022H114.462V153.368Z" fill="black"/>
<path d="M90.8076 165.195C90.8076 158.663 96.103 153.368 102.635 153.368C109.167 153.368 114.462 158.663 114.462 165.195C114.462 171.727 109.167 177.022 102.635 177.022C96.103 177.022 90.8076 171.727 90.8076 165.195Z" fill="white"/>
</mask>
<g mask="url(#mask13_872_1753)">
<path d="M90.8076 165.195C90.8076 158.663 96.103 153.368 102.635 153.368C109.167 153.368 114.462 158.663 114.462 165.195C114.462 171.727 109.167 177.022 102.635 177.022C96.103 177.022 90.8076 171.727 90.8076 165.195Z" stroke="black" stroke-width="10.8316" stroke-miterlimit="10" stroke-linejoin="round"/>
</g>
</g>
</svg>
